<?xml version="1.0" encoding="iso-8859-1"?>
<!-- Generator: Adobe Illustrator 19.0.0, SVG Export Plug-In . SVG Version: 6.00 Build 0)  -->
<svg version="1.1" id="Capa_1" xmlns="http://www.w3.org/2000/svg" xmlns:xlink="http://www.w3.org/1999/xlink" x="0px" y="0px"
	 viewBox="0 0 512 512" style="enable-background:new 0 0 512 512;" xml:space="preserve">
<circle style="fill:#1E67F7;" cx="256" cy="256" r="256"/>
<path style="fill:#0053BF;" d="M512,256c0-4.41-0.112-8.794-0.332-13.149L390.465,121.648l-16.215,29.805l-62.477-62.477
	L121.676,245.63L237.94,361.893l-81.717,66.194l83.375,83.375C245.022,511.805,250.488,512,256,512C397.385,512,512,397.385,512,256
	z"/>
<path style="fill:#FFFFFF;" d="M419,183.588c0-45.011-36.489-81.5-81.5-81.5c-4.651,0-9.203,0.41-13.641,1.159
	C309.251,81.327,284.317,66.88,256,66.88s-53.251,14.447-67.859,36.367c-4.438-0.748-8.99-1.159-13.641-1.159
	c-45.011,0-81.5,36.489-81.5,81.5c0,38.732,27.027,71.129,63.244,79.422v165.078h199.512V263.009
	C391.973,254.717,419,222.32,419,183.588z"/>
<path style="fill:#F0F0F0;" d="M337.5,102.088c-4.651,0-9.203,0.41-13.641,1.159c-14.579-21.876-39.445-36.307-67.692-36.364
	v361.205h99.589V263.009C391.973,254.717,419,222.32,419,183.588C419,138.577,382.511,102.088,337.5,102.088z"/>
<rect x="156.22" y="313.34" style="fill:#D7D7D7;" width="38.18" height="114.75"/>
<rect x="317.56" y="313.34" style="fill:#CDCDCD;" width="38.18" height="114.75"/>
<rect x="236.91" y="313.34" style="fill:#D7D7D7;" width="38.18" height="114.75"/>
<rect x="256.17" y="313.34" style="fill:#CDCDCD;" width="18.926" height="114.75"/>
<g>
</g>
<g>
</g>
<g>
</g>
<g>
</g>
<g>
</g>
<g>
</g>
<g>
</g>
<g>
</g>
<g>
</g>
<g>
</g>
<g>
</g>
<g>
</g>
<g>
</g>
<g>
</g>
<g>
</g>
</svg>
